{"title":"The.Dark.Knight.Rises.2012.Repack.1CD.FRENCH.BDRip.XviD-Itoma","uid":7831624,"size":734276049,"categoryP":"video","categoryS":"movies","magnet":"?xt=urn:btih:41e3207d2d34e68a04dfe4710acf5a58290c6003&amp;dn=The.Dark.Knight.Rises.2012.Repack.1CD.FRENCH.BDRip.XviD-Itoma&amp;tr=udp%3A%2F%2Ftracker.openbittorrent.com%3A80&amp;tr=udp%3A%2F%2Fopen.demonii.com%3A1337&amp;tr=udp%3A%2F%2Ftracker.coppersurfer.tk%3A6969&amp;tr=udp%3A%2F%2Fexodus.desync.com%3A6969","seeders":2,"leechers":0,"uploader":"emitadzTP","files":2,"time":1353072389,"description":"General\nThe.Dark.Knight.Rises.2012.Repack.1CD.FRENCH.BDRip.XviD-Itoma.avi\n\nFormat                           : AVI\nFormat/Info                      : Audio Video Interleave\nFile size                        : 700 MiB\nDuration                         : 2h 44mn\nOverall bit rate                 : 595 Kbps\nWriting application              : VirtualDubMod 1.5.10.2 (build 2542/release)\nWriting library                  : VirtualDubMod build 2542/release\n\n\nVideo\nID                               : 0\nFormat                           : MPEG-4 Visual\nFormat profile                   : Advanced Simple@L5\nFormat settings, BVOP            : 1\nFormat settings, QPel            : No\nFormat settings, GMC             : No warppoints\nFormat settings, Matrix          : Default (H.263)\nMuxing mode                      : Packed bitstream\nCodec ID                         : XVID\nCodec ID/Hint                    : XviD\nDuration                         : 2h 44mn\nBit rate                         : 445 Kbps\nWidth                            : 624 pixels\nHeight                           : 352 pixels\nDisplay aspect ratio             : 16:9\nFrame rate                       : 23.976 fps\nColor space                      : YUV\nChroma subsampling               : 4:2:0\nBit depth                        : 8 bits\nScan type                        : Progressive\nCompression mode                 : Lossy\nBits/(Pixel*Frame)               : 0.084\nStream size                      : 523 MiB (75%)\nWriting library                  : XviD 62\n\nAudio\nID                               : 1\nFormat                           : MPEG Audio\nFormat version                   : Version 1\nFormat profile                   : Layer 3\nMode                             : Joint stereo\nMode extension                   : MS Stereo\nCodec ID                         : 55\nCodec ID/Hint                    : MP3\nDuration                         : 2h 44mn\nBit rate mode                    : Variable\nBit rate                         : 138 Kbps\nMinimum bit rate                 : 112 Kbps\nChannel(s)                       : 2 channels\nSampling rate                    : 48.0 KHz\nCompression mode                 : Lossy\nStream size                      : 162 MiB (23%)\nAlignment                        : Aligned on interleaves\nInterleave, duration             : 24 ms (0.58 video frame)\nInterleave, preload duration     : 133 ms\nWriting library                  : LAME3.98r\nEncoding settings                : -m j -V 4 -q 0 -lowpass 17.5 --vbr-new -b 112\n","torrent":{"xt":"urn:btih:41e3207d2d34e68a04dfe4710acf5a58290c6003","amp;dn":"The.Dark.Knight.Rises.2012.Repack.1CD.FRENCH.BDRip.XviD-Itoma","amp;tr":["udp%3A%2F%2Ftracker.openbittorrent.com%3A80","udp%3A%2F%2Fopen.demonii.com%3A1337","udp%3A%2F%2Ftracker.coppersurfer.tk%3A6969","udp%3A%2F%2Fexodus.desync.com%3A6969"],"infoHash":"41e3207d2d34e68a04dfe4710acf5a58290c6003","infoHashBuffer":{"type":"Buffer","data":[65,227,32,125,45,52,230,138,4,223,228,113,10,207,90,88,41,12,96,3]},"announce":[],"urlList":[]}}